<svg xmlns="http://www.w3.org/2000/svg" enable-background="new 0 0 24 24" viewBox="0 0 24 24" id="american-express"><path d="M19.726,5.772c-0.242-0.646-0.458-1.199-0.656-1.758c-0.067-0.188-0.164-0.256-0.368-0.255c-1.398,0.009-2.796,0.011-4.194-0.001c-0.247-0.003-0.306,0.092-0.303,0.31c0.008,0.463,0.003,0.926-0.057,1.403c-0.214-0.462-0.444-0.918-0.634-1.39c-0.103-0.255-0.244-0.329-0.511-0.325c-1.06,0.016-2.122,0.013-3.183,0.002C9.596,3.756,9.49,3.833,9.401,4.036C8.199,6.775,6.989,9.51,5.781,12.247c-0.163,0.368-0.161,0.369,0.255,0.37c0.783,0,1.567,0.012,2.35-0.007c0.282-0.007,0.354,0.091,0.354,0.357c-0.008,2.271-0.005,4.543-0.004,6.815c0,0.483,0,0.484,0.49,0.484c2.846,0,5.692-0.005,8.538,0.007c0.33,0.001,0.558-0.099,0.759-0.355c0.244-0.311,0.528-0.592,0.783-0.895c0.118-0.141,0.197-0.155,0.32-0.002c0.268,0.331,0.568,0.638,0.825,0.977c0.165,0.217,0.355,0.276,0.612,0.272c0.403-0.005,0.807-0.004,1.211-0.004c0.449,0.001,0.898,0.002,1.348-0.006c0.275-0.005,0.394,0.061,0.376,0.362c-0.025,0.435-0.005,0.872-0.006,1.309c-0.003,1.269-0.796,2.067-2.06,2.069c-2.31,0.002-4.62,0-6.931,0c-4.314,0-8.627,0-12.94,0c-0.979,0-1.703-0.495-1.959-1.336C0.031,22.435,0,22.2,0,21.961c0-6.636,0-13.272,0.001-19.908c0-1.25,0.8-2.051,2.046-2.052c6.634-0.002,13.268-0.002,19.901,0c1.244,0,2.039,0.805,2.043,2.056c0.001,0.476-0.011,0.953,0.005,1.428c0.007,0.228-0.078,0.285-0.294,0.283c-0.435-0.004-0.869-0.004-1.304-0.003c-0.527,0-1.055,0.001-1.582-0.007c-0.256-0.004-0.387,0.063-0.471,0.321C20.171,4.621,19.957,5.152,19.726,5.772L19.726,5.772z"></path><path d="M22.423 6.493c-.174.087-.175.209-.211.304-.537 1.427-1.077 2.852-1.602 4.284-.084.229-.19.339-.447.318-.286-.023-.576-.021-.862 0-.247.016-.364-.071-.451-.309-.523-1.432-1.064-2.857-1.601-4.284-.037-.099-.052-.212-.164-.295-.079.093-.048.203-.048.302-.002 1.418-.008 2.837.005 4.256.003.269-.084.345-.34.331-.336-.019-.674-.01-1.011-.003-.167.003-.224-.064-.224-.23.004-1.964.004-3.928 0-5.892 0-.174.074-.219.233-.218.743.005 1.487.008 2.231-.002.2-.002.245.116.301.261.432 1.138.868 2.276 1.302 3.413l.044.11c.047.094.039.257.154.262.125.005.119-.158.155-.253.445-1.165.892-2.33 1.322-3.501.082-.225.191-.3.428-.294.694.017 1.388.012 2.082.002.203-.003.278.054.276.268-.007 1.934-.007 3.868 0 5.802.001.211-.069.28-.274.272-.327-.012-.655-.016-.981.001-.244.013-.324-.069-.322-.318.01-1.398.005-2.797.005-4.196C22.423 6.767 22.423 6.65 22.423 6.493L22.423 6.493zM10.114 15.765c0-.943.007-1.885-.004-2.827-.003-.237.051-.329.309-.327 1.567.012 3.134.01 4.7 0 .238-.002.32.071.304.306-.017.247-.015.496 0 .743.014.225-.074.29-.293.288-.481-.004-.962-.004-1.444-.003-.55 0-1.1.001-1.65-.006-.265-.004-.389.064-.358.348.019.176.015.357.001.535-.018.233.071.308.306.306.982-.011 1.963-.005 2.946-.004.391 0 .392.001.393.393 0 .208-.011.417.002.624.015.228-.062.311-.302.308-.504-.006-1.009-.005-1.513-.005-.497.001-.994.001-1.491-.005-.259-.004-.344.072-.342.336.003.841-.007.841.837.841.873 0 1.745.006 2.618-.004.221-.003.304.065.292.288-.015.247-.017.497 0 .743.016.237-.069.307-.305.305-1.448-.009-2.896-.004-4.343-.004-.661 0-.661 0-.661-.65C10.114 17.451 10.114 16.608 10.114 15.765L10.114 15.765zM11.518 5.058c.268 0 .537.016.803-.005.219-.017.314.08.396.267.843 1.933 1.691 3.863 2.546 5.791.093.21.095.298-.173.287-.426-.016-.853-.011-1.279-.001-.177.004-.27-.061-.326-.228-.076-.225-.195-.436-.261-.663-.076-.262-.219-.354-.493-.349-.832.017-1.665.012-2.498.003-.22-.002-.348.068-.416.285-.075.235-.193.456-.272.691-.062.186-.159.269-.366.262-.426-.014-.852-.009-1.279-.002-.177.002-.232-.041-.152-.222C8.63 9.193 9.506 7.21 10.38 5.226c.058-.131.14-.172.275-.17C10.943 5.063 11.231 5.058 11.518 5.058L11.518 5.058zM11.461 6.43c-.304.75-.615 1.505-.914 2.264-.066.166.062.165.163.164.009 0 .017 0 .025 0 .211.002.422.001.633.001.294-.001.588-.001.882.003.242.004.263-.093.18-.29-.274-.657-.54-1.319-.81-1.978C11.596 6.532 11.583 6.457 11.461 6.43L11.461 6.43zM23.447 12.618c-.944 1.004-1.835 1.961-2.74 2.905-.181.189-.199.301-.007.5.838.872 1.657 1.762 2.481 2.647.065.069.159.122.172.271-.625 0-1.243.002-1.863-.002-.124 0-.184-.107-.257-.185-.528-.565-1.06-1.126-1.577-1.701-.152-.169-.246-.169-.396-.003-.513.566-1.042 1.116-1.556 1.68-.137.15-.278.223-.487.218-.535-.014-1.07-.004-1.607-.004-.032-.124.071-.162.124-.219.838-.899 1.674-1.801 2.526-2.687.181-.188.175-.295-.001-.479-.834-.876-1.654-1.765-2.477-2.652-.072-.077-.166-.14-.203-.288.632 0 1.251.001 1.871 0 .129 0 .189.095.262.173.513.552 1.033 1.096 1.531 1.662.188.213.297.242.499.01.49-.559 1.013-1.089 1.512-1.64.139-.153.285-.215.491-.21C22.287 12.626 22.831 12.618 23.447 12.618L23.447 12.618z"></path><path d="M23.972,17.421c-0.536-0.511-1.077-1.03-1.62-1.547l-0.006-0.199c0.535-0.525,1.068-1.051,1.626-1.602C23.972,15.216,23.972,16.328,23.972,17.421L23.972,17.421z"></path><path fill="#212121" d="M19.469,18.91c-0.051,0-0.102,0.039-0.162,0.111c-0.255,0.304-0.539,0.584-0.783,0.895c-0.2,0.254-0.426,0.355-0.754,0.355c-0.002,0-0.004,0-0.006,0c-1.57-0.007-3.141-0.008-4.711-0.008c-0.351,0-0.702,0-1.053,0V24c1,0,2,0,3.001,0c0.881,0,1.761,0,2.642,0h2.912c0.459,0,0.918,0,1.377-0.001c1.264-0.001,2.057-0.799,2.06-2.069c0.001-0.437-0.019-0.874,0.006-1.309c0.018-0.292-0.093-0.363-0.35-0.363c-0.009,0-0.017,0-0.026,0c-0.3,0.005-0.599,0.007-0.898,0.007c-0.15,0-0.299,0-0.449-0.001c-0.147,0-0.295-0.001-0.442-0.001c-0.256,0-0.512,0.001-0.768,0.004c-0.006,0-0.013,0-0.019,0c-0.247,0-0.433-0.061-0.594-0.273c-0.257-0.339-0.557-0.646-0.825-0.977C19.566,18.945,19.517,18.91,19.469,18.91L19.469,18.91z M17.637,0H12v3.767c0.334-0.002,0.668-0.005,1.002-0.01c0.007,0,0.013,0,0.02,0c0.255,0,0.392,0.077,0.492,0.325c0.191,0.472,0.421,0.928,0.634,1.39c0.06-0.477,0.066-0.94,0.057-1.403c-0.003-0.215,0.054-0.31,0.293-0.31c0.003,0,0.007,0,0.01,0c0.68,0.006,1.359,0.008,2.038,0.008c0.719,0,1.437-0.003,2.156-0.007c0.002,0,0.005,0,0.007,0c0.2,0,0.295,0.069,0.361,0.255c0.198,0.559,0.414,1.112,0.656,1.758c0.231-0.62,0.445-1.151,0.621-1.694c0.081-0.251,0.208-0.321,0.451-0.321c0.007,0,0.013,0,0.02,0c0.415,0.006,0.829,0.008,1.244,0.008c0.112,0,0.225,0,0.337,0c0.15,0,0.3,0,0.45,0c0.285,0,0.569,0.001,0.854,0.004c0.004,0,0.007,0,0.01,0c0.208,0,0.29-0.059,0.283-0.283c-0.016-0.476-0.004-0.952-0.005-1.428c-0.004-1.251-0.799-2.055-2.043-2.056C20.511,0.001,19.074,0,17.637,0L17.637,0z"></path><path fill="#212121" d="M21.612 5.051c-.221 0-.324.078-.404.294-.43 1.171-.877 2.336-1.322 3.501-.036.093-.03.253-.15.253-.002 0-.003 0-.005 0-.115-.005-.107-.168-.154-.262l-.044-.11c-.435-1.138-.87-2.275-1.302-3.413-.055-.144-.1-.261-.295-.261-.002 0-.004 0-.006 0-.358.005-.715.007-1.073.007-.386 0-.772-.002-1.158-.005-.001 0-.003 0-.004 0-.157 0-.229.046-.229.218.004 1.964.004 3.928 0 5.892 0 .162.055.23.214.23.003 0 .006 0 .01 0 .185-.004.37-.008.555-.008.152 0 .304.003.456.012.02.001.038.002.056.002.213 0 .287-.084.284-.332-.013-1.419-.007-2.837-.005-4.256 0-.099-.031-.209.048-.302.112.083.127.196.164.295.537 1.427 1.078 2.853 1.601 4.284.081.22.186.311.396.311.018 0 .036-.001.055-.002.147-.01.295-.016.443-.016.14 0 .28.005.419.017.021.002.04.003.059.003.215 0 .311-.11.388-.321.526-1.431 1.065-2.857 1.602-4.284.036-.095.037-.217.211-.304 0 .157 0 .274 0 .391 0 1.399.005 2.797-.005 4.196-.002.233.067.319.275.319.015 0 .031 0 .047-.001.153-.008.307-.012.462-.012.173 0 .347.004.52.01.01 0 .02.001.029.001.182 0 .246-.073.245-.273-.007-1.934-.007-3.868 0-5.802.001-.209-.07-.268-.263-.268-.004 0-.009 0-.014 0-.367.005-.734.009-1.101.009-.327 0-.654-.003-.981-.011C21.629 5.052 21.62 5.051 21.612 5.051L21.612 5.051zM12 17.601v1.343c.345 0 .689-.001 1.034-.001.695 0 1.39.001 2.085.006.003 0 .006 0 .01 0 .228 0 .312-.071.295-.305-.017-.246-.015-.496 0-.743.013-.219-.067-.288-.277-.288-.005 0-.009 0-.014 0-.399.005-.799.006-1.198.006-.473 0-.947-.002-1.42-.002C12.286 17.617 12.12 17.617 12 17.601L12 17.601zM13.365 15.121c-.455 0-.91.001-1.365.006v1.312c.001 0 .002 0 .002 0 .006 0 .012 0 .018 0 .35.004.699.005 1.049.005.147 0 .295 0 .442 0 .145 0 .29 0 .436 0 .359 0 .718.001 1.077.005.004 0 .008 0 .011 0 .232 0 .306-.084.291-.308-.013-.207-.002-.416-.002-.624-.001-.393-.002-.393-.393-.393C14.409 15.123 13.887 15.121 13.365 15.121L13.365 15.121zM15.127 12.612c-.002 0-.005 0-.007 0-.805.005-1.609.008-2.414.008-.235 0-.47 0-.706-.001v1.32c.006 0 .012 0 .018 0 .006 0 .013 0 .019 0 .42.005.841.006 1.261.006.13 0 .259 0 .389 0 .139 0 .278 0 .417 0 .342 0 .684.001 1.027.004.003 0 .006 0 .009 0 .212 0 .297-.066.283-.288-.015-.247-.017-.497 0-.743C15.439 12.686 15.359 12.612 15.127 12.612L15.127 12.612z"></path><path fill="#FFF" d="M12,7.524V8.86c0.084,0.001,0.167,0.001,0.251,0.003c0.005,0,0.009,0,0.014,0c0.229,0,0.247-0.097,0.166-0.29C12.285,8.223,12.142,7.874,12,7.524L12,7.524z"></path><path fill="#212121" d="M12.369 5.051c-.015 0-.031.001-.048.002-.104.008-.209.011-.315.011-.002 0-.004 0-.006 0v2.461c.142.35.285.699.431 1.048.081.193.063.29-.166.29-.005 0-.009 0-.014 0C12.167 8.861 12.084 8.86 12 8.86v1.307c.243-.002.487-.005.73-.01.007 0 .014 0 .021 0 .261 0 .398.094.472.349.066.227.185.438.261.663.055.162.143.228.31.228.005 0 .011 0 .016 0 .229-.005.458-.009.687-.009.197 0 .395.003.592.01.014.001.028.001.04.001.227 0 .22-.089.132-.288-.854-1.928-1.703-3.858-2.546-5.791C12.641 5.147 12.554 5.051 12.369 5.051L12.369 5.051zM21.724 12.613c-.196 0-.336.062-.471.211-.499.552-1.022 1.081-1.512 1.64-.097.111-.172.162-.245.162-.08 0-.156-.061-.254-.172-.498-.565-1.019-1.11-1.531-1.662-.073-.078-.133-.173-.261-.173h-.001c-.248.001-.496.001-.744.001-.373 0-.747 0-1.127 0 .038.148.132.212.203.288.823.887 1.642 1.776 2.477 2.652.175.184.182.291.001.479-.851.886-1.687 1.788-2.526 2.687-.053.057-.155.095-.124.219.311 0 .62-.003.93-.003.226 0 .451.002.677.007.007 0 .014 0 .022 0 .197 0 .333-.073.465-.218.514-.564 1.043-1.114 1.556-1.68.075-.083.136-.124.197-.124.062 0 .123.042.199.127.517.575 1.049 1.136 1.577 1.701.073.078.133.184.257.185.31.002.619.002.929.002s.621 0 .933 0c-.014-.149-.108-.201-.172-.271-.824-.885-1.643-1.775-2.481-2.647-.192-.2-.174-.312.007-.5.905-.944 1.795-1.901 2.74-2.905-.342 0-.662.002-.972.002-.248 0-.49-.002-.731-.007C21.737 12.613 21.731 12.613 21.724 12.613L21.724 12.613z"></path><path fill="#212121" d="M23.972,14.074c-0.558,0.55-1.092,1.077-1.626,1.602l0.006,0.199c0.544,0.516,1.085,1.035,1.62,1.547C23.972,16.328,23.972,15.216,23.972,14.074L23.972,14.074z"></path></svg>