<svg xmlns="http://www.w3.org/2000/svg" data-name="Layer 3" viewBox="0 0 64 64" id="cleaning"><path fill="#dcdcdc" d="M58.84,32v6.194H54.711V32A8.258,8.258,0,1,0,38.2,32v6.194H34.066V32A12.387,12.387,0,1,1,58.84,32Z"></path><path fill="#f8e883" d="M17.55,3.1V32l-3.1,2.46L11.357,32V3.1a3.1,3.1,0,0,1,6.193,0Z"></path><path fill="#7fb3fa" d="M59.873,36.129H33.034a2.071,2.071,0,0,0-2.065,2.065v4.129a2.071,2.071,0,0,0,2.065,2.064h1.032L35.738,60.3A4.138,4.138,0,0,0,39.847,64H53.06a4.136,4.136,0,0,0,4.108-3.7L58.84,44.387h1.033a2.07,2.07,0,0,0,2.064-2.064V38.194A2.071,2.071,0,0,0,59.873,36.129Z"></path><path fill="#64a6f4" d="M40.9,60.3,39.225,44.387H38.193a2.071,2.071,0,0,1-2.065-2.064V38.194a2.071,2.071,0,0,1,2.065-2.065H33.034a2.071,2.071,0,0,0-2.065,2.065v4.129a2.071,2.071,0,0,0,2.065,2.064h1.032L35.738,60.3A4.138,4.138,0,0,0,39.847,64h5.159A4.138,4.138,0,0,1,40.9,60.3Z"></path><path fill="#655e67" d="M61.937,38.194v4.129a2.07,2.07,0,0,1-2.064,2.064H33.034a2.071,2.071,0,0,1-2.065-2.064V38.194a2.071,2.071,0,0,1,2.065-2.065H59.873A2.071,2.071,0,0,1,61.937,38.194Z"></path><path fill="#544f56" d="M39.225,41.29H38.193a2.071,2.071,0,0,1-2.065-2.064v-3.1H33.034a2.071,2.071,0,0,0-2.065,2.065v4.129a2.071,2.071,0,0,0,2.065,2.064H59.873a2.07,2.07,0,0,0,2.064-2.064V41.29Z"></path><path fill="#dcdcdc" d="M26.807,56.062a9.907,9.907,0,0,1-1,5.027,23.375,23.375,0,0,1-4.129,1.775c-.681.217-1.363.4-2.065.558a23.311,23.311,0,0,1-4.129.557c-.34.011-.691.021-1.032.021s-.692-.01-1.032-.021a23.324,23.324,0,0,1-4.129-.557c-.7-.155-1.384-.341-2.065-.558A23.375,23.375,0,0,1,3.1,61.089C1.032,57.972,2.064,46.544,7.225,40.31V36.129A4.128,4.128,0,0,1,11.354,32h6.194a4.128,4.128,0,0,1,4.129,4.129V40.31C25.207,44.573,26.807,51.252,26.807,56.062Z"></path><path fill="#c7bdc0" d="M12.3,40.31V35.7A4.79,4.79,0,0,1,14.066,32H11.357a4.128,4.128,0,0,0-4.13,4.129V40.31C2.066,46.544,1.034,57.972,3.1,61.089a23.582,23.582,0,0,0,3.573,1.578C5.53,57.434,7.148,46.531,12.3,40.31Z"></path><path fill="#ff6f7f" d="M21.679,36.129V40.31H7.227V36.129A4.128,4.128,0,0,1,11.357,32H17.55A4.128,4.128,0,0,1,21.679,36.129Z"></path><path fill="#ed5c79" d="M13.419,38.194a2.066,2.066,0,0,1-2.065-2.065V34.013A4.082,4.082,0,0,1,11.9,32h-.542a4.13,4.13,0,0,0-4.13,4.129V40.31H21.679V38.194Z"></path><path fill="#f2cb77" d="M14.451,26.839V0a3.093,3.093,0,0,0-3.094,3.1V32H17.55V28.9H16.516A2.064,2.064,0,0,1,14.451,26.839Z"></path><path fill="#655e67" d="M15.483 56.774v7.2c-.34.011-.691.021-1.032.021s-.692-.01-1.032-.021v-7.2a1.032 1.032 0 1 1 2.064 0zM21.677 56.774v6.09c-.681.217-1.363.4-2.065.558V56.774a1.033 1.033 0 0 1 2.065 0zM9.29 56.774v6.648c-.7-.155-1.384-.341-2.065-.558v-6.09a1.033 1.033 0 0 1 2.065 0z"></path></svg>