<svg xmlns="http://www.w3.org/2000/svg" width="100" height="100" enable-background="new 0 0 100 100" viewBox="0 0 100 100" id="furniture-cleaning"><path fill="#143151" d="M36.967 6.5h-32v60h32V6.5zM30.967 45.5c-1.656 0-3-1.344-3-3s1.344-3 3-3 3 1.344 3 3S32.623 45.5 30.967 45.5zM4.967 85.5h3v8h6l3.076-8h41.846l3.078 8h6v-8h3v-16h-66V85.5zM49.967 75.5h10v3h-10V75.5zM15.967 75.5h10v3h-10V75.5zM91.678 36.77L74.693 19.785c-1.082-1.084-2.348-1.923-3.727-2.491V6.5h-31v60h31v-5.418c1.814 1.143 3.916 1.764 6.123 1.764l0 0c3.08 0 5.967-1.191 8.131-3.355l6.457-6.457c2.166-2.164 3.357-5.053 3.357-8.132S93.844 38.934 91.678 36.77zM45.967 45.5c-1.656 0-3-1.344-3-3s1.344-3 3-3 3 1.344 3 3S47.623 45.5 45.967 45.5zM89.557 50.912L83.1 57.369c-1.598 1.598-3.732 2.477-6.01 2.477-2.279 0-4.414-.88-6.012-2.478l-16.98-16.982c-3.313-3.313-3.314-8.708 0-12.022l6.455-6.455c1.598-1.599 3.732-2.479 6.01-2.479s4.412.879 6.01 2.477l16.984 16.984C92.871 42.205 92.871 47.598 89.557 50.912z"></path><circle cx="83.001" cy="44.598" r="3.001" fill="#143151"></circle><path fill="#143151" d="M60.734,34.33c-0.979,0.977-0.979,2.56,0,3.536c0.973,0.977,2.557,0.977,3.533,0s0.977-2.56,0-3.536
			S61.707,33.354,60.734,34.33z"></path><circle cx="72" cy="46.599" r="2" fill="#143151"></circle><circle cx="71" cy="35.598" r="2" fill="#143151"></circle><g><path fill="#37D0F6" d="M58.35,56.788c0,3.17-2.633,5.738-5.883,5.738c-3.248,0-5.883-2.568-5.883-5.738
			c0-3.169,5.883-11.515,5.883-11.515S58.35,53.619,58.35,56.788z"></path></g></svg>